<!--?xml version="1.0" standalone="no"?-->
              <svg id="sw-js-blob-svg" viewBox="0 0 100 100" xmlns="http://www.w3.org/2000/svg" version="1.1">
                    <defs> 
                        <linearGradient id="sw-gradient" x1="0" x2="1" y1="1" y2="0">
                            <stop id="stop1" stop-color="rgba(80.712, 80.712, 80.712, 1)" offset="0%"></stop>
                            <stop id="stop2" stop-color="rgba(0, 0, 0, 1)" offset="100%"></stop>
                        </linearGradient>
                    </defs>
                <path fill="url(#sw-gradient)" d="M21.5,-27.7C28.8,-24.3,36.3,-19.3,38.5,-12.5C40.8,-5.7,37.8,2.8,34.3,10.4C30.8,18,26.8,24.6,20.9,28.3C15.1,32,7.6,32.8,-0.6,33.6C-8.8,34.5,-17.5,35.3,-25.2,32.2C-32.9,29.1,-39.5,22.1,-42.5,13.6C-45.6,5.2,-45,-4.6,-41.8,-13.3C-38.6,-22,-32.8,-29.5,-25.4,-32.8C-17.9,-36.1,-9,-35.2,-0.9,-34C7.1,-32.7,14.2,-31,21.5,-27.7Z" width="100%" height="100%" transform="translate(50 50)" style="transition: all 0.3s ease 0s;" stroke-width="0" stroke="url(#sw-gradient)"></path>
              </svg>